<?xml version="1.0" encoding="utf-8"?>
<!-- Generator: Adobe Illustrator 22.1.0, SVG Export Plug-In . SVG Version: 6.00 Build 0)  -->
<svg version="1.1" xmlns="http://www.w3.org/2000/svg" xmlns:xlink="http://www.w3.org/1999/xlink" x="0px" y="0px"
	 viewBox="0 0 123.5 101" style="enable-background:new 0 0 123.5 101;" xml:space="preserve">
<style type="text/css">
	.st0{display:none;}
	.st1{display:inline;}
	.st2{fill:#FFFFFF;}
</style>
<g id="Ebene_2" class="st0">
	<rect y="-0.1" class="st1" width="123.5" height="100.9"/>
</g>
<g id="Ebene_1">
	<title>Element 7</title>
	<g id="Ebene_2_1_">
		<g id="Ebene_1-2">
			<path class="st2" d="M19,82.3c-0.2-0.6,4.6-4.1,6.6-7.2c3.6-5.8,2.1-11.1,3-17.3c1.5-10.2,11.3-19.1,19.2-24.5
				c5-3.4,7.8-7.5,8.8-13.6l0,0c0.1-1,1-1.6,2-1.5c0.9,0.1,1.6,0.9,1.5,1.8v24.4c0,0.6-0.4,1.2-1,1.5c-2.9,1.5-6.8,5.1-10.1,6.6
				c-1.6,0.8-2.8,2.3-3,4.1c0,0.2-0.1,0.5-0.2,0.7c-0.9,5-1.4,11.1,1.9,15.1c1.9,2.3,7.7,3.5,10.3,5.9c0.3,0.3,0.6,0.5,1,0.6
				c0.6,0.3,1,0.9,1,1.6v12c0,1-0.8,1.8-1.8,1.7c0,0,0,0-0.1,0c-2,0-4-0.2-6-0.5c-6.6-1.2-11.3-6.9-18.3-7.5
				c-1.6-0.1-21.7,4.5-18.2,0.5C15.7,86.3,19,82.3,19,82.3z"/>
			<path class="st2" d="M104.5,82.3c0.2-0.6-4.6-4.1-6.6-7.2c-3.6-5.8-2.1-11.1-3-17.3c-1.5-10.2-11.3-19.1-19.2-24.5
				c-5-3.4-7.8-7.6-8.8-13.5l0,0c-0.1-1-1-1.6-2-1.5c-0.9,0.1-1.6,0.9-1.5,1.8v24.4c0,0.6,0.4,1.2,1,1.5c2.9,1.5,6.8,5.1,10.1,6.6
				c1.6,0.8,2.8,2.3,3,4.1c0,0.2,0.1,0.5,0.2,0.7c0.9,5,1.4,11.1-1.9,15.1c-1.9,2.3-7.7,3.5-10.3,5.9c-0.3,0.3-0.6,0.5-1,0.6
				c-0.6,0.3-1,0.9-1,1.6v12c0,1,0.8,1.8,1.8,1.7c0,0,0,0,0,0c2,0,4-0.2,6-0.5c6.6-1.2,11.3-6.9,18.3-7.5c1.6-0.1,21.7,4.4,18.3,0.4
				C107.8,86.3,104.5,82.3,104.5,82.3z"/>
		</g>
	</g>
</g>
</svg>
